ply
format ascii 1.0
comment Created in Blender version 4.2.3 LTS
element vertex 32
property float x
property float y
property float z
property float s
property float t
element face 28
property list uchar uint vertex_indices
end_header
0.005 0.005 -0.005 0.69895047 0.39790097
-0.005 -0.002565939 -0.005 0.39790103 -1.7392798e-08
-0.005 0.005 -0.005 0.69895047 5.3358025e-09
-0.005 0.005 0.005 0.69895047 0.79580194
0.005 -0.002565939 0.005 0.39790106 0.39790094
0.005 0.005 0.005 0.69895047 0.39790097
-0.005 -0.002565939 0.005 0.69895047 0
-0.005 0.005 -0.005 0.9999999 0.39790097
-0.005 -0.002565939 -0.005 0.69895047 0.39790097
0.005 -0.002565939 -0.005 0.397901 0.397901
-0.003558531 -0.004007408 -0.003558531 0.34054482 0.057356212
-0.005 -0.002565939 -0.005 0.39790103 3.004069e-08
-0.005 0.005 0.005 1.1068854e-08 0.79580206
0.005 0.005 -0.005 0.397901 0.3979011
-0.005 0.005 -0.005 0.39790097 0.79580206
0.001162202 -0.005 0.001162202 0.15270638 0.24519463
-0.001162202 -0.005 -0.001162202 0.24519466 0.15270637
0.001162202 -0.005 -0.001162202 0.24519464 0.24519463
0.003558531 -0.004007408 -0.003558531 0.3405448 0.34054482
0.005 -0.002565939 0.005 1.7392804e-08 0.39790097
0.003558531 -0.004007408 0.003558531 0.05735621 0.3405448
-0.003558531 -0.004007408 0.003558531 0.05735623 0.05735619
0.005 0.005 0.005 0.6989505 0.39790097
0.005 -0.002565939 -0.005 1 0.79580194
0.005 0.005 -0.005 0.6989505 0.79580194
-0.001162202 -0.005 0.001162202 0.15270638 0.15270637
-0.005 -0.002565939 0.005 4.7433492e-08 3.581129e-15
0.005 -0.002565939 -0.005 0.397901 0.39790094
-0.005 -0.002565939 0.005 0.39790103 0.79580194
-0.005 0.005 0.005 0.9999999 0
0.005 0.005 0.005 4.110954e-08 0.39790106
0.005 -0.002565939 0.005 1 0.39790097
3 0 1 2
3 3 4 5
3 6 7 8
3 9 10 11
3 12 13 14
3 15 16 17
3 18 19 20
3 21 11 10
3 22 23 24
3 25 10 16
3 17 20 15
3 15 21 25
3 16 18 17
3 26 20 19
3 0 27 1
3 3 28 4
3 6 29 7
3 9 18 10
3 12 30 13
3 15 25 16
3 18 9 19
3 21 26 11
3 22 31 23
3 25 21 10
3 17 18 20
3 15 20 21
3 16 10 18
3 26 21 20
