ply
format ascii 1.0
comment Created in Blender version 4.2.3 LTS
element vertex 28
property float x
property float y
property float z
property float s
property float t
element face 28
property list uchar uint vertex_indices
end_header
0.005 0.005 -0.005 0.375 0.5
-0.005 -0.002565939 -0.005 0.125 0.6891485
-0.005 0.005 -0.005 0.125 0.5
-0.005 0.005 0.005 0.875 0.5
0.005 -0.002565939 0.005 0.625 0.6891485
0.005 0.005 0.005 0.625 0.5
-0.005 -0.002565939 0.005 0.625 0.06085152
-0.005 0.005 -0.005 0.375 0.25
-0.005 -0.002565939 -0.005 0.375 0.060851514
0.005 -0.002565939 -0.005 0.375 0.75
-0.003558531 -0.004007408 -0.003558531 0.41103673 0.9639634
-0.005 -0.002565939 -0.005 0.375 1
-0.005 0.005 0.005 0.625 0.25
0.001162202 -0.005 0.001162202 0.5290551 0.84594494
-0.001162202 -0.005 -0.001162202 0.47094497 0.9040551
0.001162202 -0.005 -0.001162202 0.47094494 0.8459449
0.003558531 -0.004007408 -0.003558531 0.4110367 0.7612219
0.003558531 -0.004007408 0.003558531 0.5889633 0.761222
-0.003558531 -0.004007408 0.003558531 0.5889633 0.9639633
-0.003558531 -0.004007408 -0.003558531 0.41103673 0.9639633
0.005 -0.002565939 -0.005 0.375 0.6891485
-0.001162202 -0.005 0.001162202 0.5290551 0.9040551
-0.003558531 -0.004007408 0.003558531 0.58896327 0.9639633
0.003558531 -0.004007408 -0.003558531 0.4110367 0.78603673
-0.005 -0.002565939 0.005 0.625 1
0.003558531 -0.004007408 0.003558531 0.5889634 0.7860368
0.005 -0.002565939 0.005 0.625 0.75
-0.005 -0.002565939 0.005 0.875 0.6891485
3 0 1 2
3 3 4 5
3 6 7 8
3 9 10 11
3 12 0 7
3 13 14 15
3 16 4 17
3 18 11 19
3 5 20 0
3 21 19 14
3 15 17 13
3 13 22 21
3 14 23 15
3 24 25 26
3 0 20 1
3 3 27 4
3 6 12 7
3 9 23 10
3 12 5 0
3 13 21 14
3 16 20 4
3 18 24 11
3 5 4 20
3 21 18 19
3 15 16 17
3 13 25 22
3 14 10 23
3 24 22 25
