ply
format ascii 1.0
comment Created in Blender version 4.2.3 LTS
element vertex 34
property float x
property float y
property float z
property float s
property float t
element face 32
property list uchar uint vertex_indices
end_header
1 -1 0.23786643 0.5236665 0.75
-0.890813 -0.890813 0.013042197 0.375 1
0.890813 -0.890813 0.013042197 0.375 0.75
-1 -1 0.23786643 0.5236665 0
-0.890813 0.890813 0.013042197 0.375 0.25
-0.890813 -0.890813 0.013042197 0.375 0
0.890813 0.890813 0.013042197 0.375 0.5
-0.890813 -0.890813 0.013042197 0.125 0.75
-0.890813 0.890813 0.013042197 0.125 0.5
-0.18933213 0.18933213 0.4 0.7736665 0.6013335
0.18933213 -0.18933213 0.4 0.7263335 0.6486665
0.18933213 0.18933213 0.4 0.72633344 0.6013335
1 1 0.23786643 0.5236665 0.5
-1 -1 0.23786643 0.875 0.75
1 -1 0.23786643 0.625 0.75
-0.18933213 -0.18933213 0.4 0.7736665 0.6486665
-1 1 0.23786643 0.875 0.5
1 1 0.23786643 0.625 0.5
-1 1 0.23786643 0.5236665 0.25
-1 -1 0.23786643 0.5236665 1
-0.2 0.2 0.8 0.875 0.5
0.2 -0.2 0.8 0.625 0.75
0.2 0.2 0.8 0.625 0.5
-0.2 -0.2 0.40000004 0.375 1
0.2 -0.2 0.40000004 0.375 0.75
-0.2 -0.2 0.8 0.625 0
-0.2 0.2 0.40000004 0.375 0.25
-0.2 -0.2 0.40000004 0.375 0
0.2 0.2 0.40000004 0.375 0.5
-0.2 -0.2 0.40000004 0.125 0.75
-0.2 0.2 0.40000004 0.125 0.5
-0.2 0.2 0.8 0.625 0.25
-0.2 -0.2 0.8 0.875 0.75
-0.2 -0.2 0.8 0.625 1
3 0 1 2
3 3 4 5
3 6 7 8
3 9 10 11
3 12 2 6
3 10 13 14
3 11 0 12
3 15 16 13
3 9 17 16
3 18 6 4
3 0 19 1
3 3 18 4
3 6 2 7
3 9 15 10
3 12 0 2
3 10 15 13
3 11 10 0
3 15 9 16
3 9 11 17
3 18 12 6
3 20 21 22
3 21 23 24
3 25 26 27
3 28 29 30
3 22 24 28
3 31 28 26
3 20 32 21
3 21 33 23
3 25 31 26
3 28 24 29
3 22 21 24
3 31 22 28
