ply
format ascii 1.0
comment Created in Blender version 4.2.3 LTS
element vertex 42
property float x
property float y
property float z
property float s
property float t
element face 50
property list uchar uint vertex_indices
end_header
0.13 0.13 0.12907737 0.5236665 0.75
-0.115805686 0.115805686 0.15830453 0.375 1
0.115805686 0.115805686 0.15830453 0.375 0.75
-0.13 0.13 0.12907737 0.5236665 0
-0.115805686 -0.115805686 0.1583045 0.375 0.25
-0.115805686 0.115805686 0.15830453 0.375 0
0.115805686 -0.115805686 0.1583045 0.375 0.5
-0.115805686 0.115805686 0.15830453 0.125 0.75
-0.115805686 -0.115805686 0.1583045 0.125 0.5
-0.024613176 -0.024613172 0.107999995 0.7736665 0.6013335
0.024613176 0.02461318 0.108 0.7263335 0.6486665
0.024613176 -0.024613172 0.107999995 0.72633344 0.6013335
0.13 -0.13 0.12907735 0.5236665 0.5
-0.13 0.13 0.12907737 0.875 0.75
0.13 0.13 0.12907737 0.625 0.75
-0.024613176 0.02461318 0.108 0.7736665 0.6486665
-0.13 -0.13 0.12907735 0.875 0.5
0.13 -0.13 0.12907735 0.625 0.5
-0.13 -0.13 0.12907735 0.5236665 0.25
-0.13 0.13 0.12907737 0.5236665 1
-0.025999999 -0.02599999 0.056 0.875 0.5
0.025999999 0.026000008 0.056 0.625 0.75
0.025999999 -0.02599999 0.056 0.625 0.5
-0.025999999 0.026000002 0.107999995 0.375 1
0.025999999 0.026000002 0.107999995 0.375 0.75
-0.025999999 0.026000008 0.056 0.625 0
-0.025999999 -0.025999995 0.107999995 0.375 0.25
-0.025999999 0.026000002 0.107999995 0.375 0
0.025999999 -0.025999995 0.107999995 0.375 0.5
-0.025999999 0.026000002 0.107999995 0.125 0.75
-0.025999999 -0.025999995 0.107999995 0.125 0.5
-0.025999999 -0.02599999 0.056 0.625 0.25
-0.025999999 0.026000008 0.056 0.875 0.75
-0.025999999 0.026000008 0.056 0.625 1
0.025999999 -0.025999987 0.021856993 0.625 0.5
-0.025999999 0.02600001 0.021856993 0.625 1
0.025999999 0.02600001 0.021856993 0.625 0.75
-0.025999999 -0.025999987 0.021856993 0.625 0.25
0.025999999 -0.025999986 0.017133579 0.625 0.5
-0.025999999 0.026000012 0.017133579 0.625 1
0.025999999 0.026000012 0.017133579 0.625 0.75
-0.025999999 -0.025999986 0.017133579 0.625 0.25
3 0 1 2
3 3 4 5
3 6 7 8
3 9 10 11
3 12 2 6
3 10 13 14
3 11 0 12
3 15 16 13
3 9 17 16
3 18 6 4
3 0 19 1
3 3 18 4
3 6 2 7
3 9 15 10
3 12 0 2
3 10 15 13
3 11 10 0
3 15 9 16
3 9 11 17
3 18 12 6
3 20 21 22
3 21 23 24
3 25 26 27
3 28 29 30
3 22 24 28
3 31 28 26
3 20 32 21
3 21 33 23
3 25 31 26
3 28 24 29
3 22 21 24
3 31 22 28
3 31 34 22
3 21 35 33
3 22 36 21
3 37 38 34
3 36 39 35
3 34 40 36
3 35 41 37
3 38 39 40
3 31 37 34
3 21 36 35
3 22 34 36
3 37 41 38
3 36 40 39
3 34 38 40
3 37 31 33
3 35 39 41
3 37 33 35
3 38 41 39
